RobotoSerifTextWide-Hairline 04h.ufo
<glyph name="dollar" format="2">
  <advance width="650"/>
  <unicode hex="0024"/>
  <outline>
    <contour>
      <point x="315" y="787" type="line"/>
      <point x="315" y="687" type="line"/>
      <point x="315" y="678" type="line"/>
      <point x="315" y="30" type="line"/>
      <point x="315" y="25" type="line"/>
      <point x="315" y="-120" type="line"/>
      <point x="354" y="-120" type="line"/>
      <point x="354" y="22" type="line"/>
      <point x="354" y="27" type="line"/>
      <point x="354" y="674" type="line"/>
      <point x="354" y="687" type="line"/>
      <point x="354" y="787" type="line"/>
    </contour>
    <contour>
      <point x="341" y="39" type="curve" smooth="yes"/>
      <point x="234" y="39"/>
      <point x="132" y="69"/>
      <point x="84" y="126" type="curve"/>
      <point x="76" y="110"/>
      <point x="90" y="99"/>
      <point x="104" y="80" type="curve"/>
      <point x="104" y="186" type="line"/>
      <point x="53" y="186" type="line"/>
      <point x="53" y="96" type="line"/>
      <point x="105" y="49"/>
      <point x="216" y="8"/>
      <point x="341" y="8" type="curve" smooth="yes"/>
      <point x="485" y="8"/>
      <point x="600" y="72"/>
      <point x="600" y="196" type="curve" smooth="yes"/>
      <point x="600" y="319"/>
      <point x="473" y="355"/>
      <point x="368" y="379" type="curve" smooth="yes"/>
      <point x="248" y="405"/>
      <point x="128" y="430"/>
      <point x="128" y="533" type="curve" smooth="yes"/>
      <point x="128" y="618"/>
      <point x="213" y="667"/>
      <point x="338" y="667" type="curve" smooth="yes"/>
      <point x="437" y="667"/>
      <point x="513" y="642"/>
      <point x="546" y="604" type="curve"/>
      <point x="553" y="626"/>
      <point x="536" y="650"/>
      <point x="518" y="653" type="curve"/>
      <point x="518" y="552" type="line"/>
      <point x="572" y="552" type="line"/>
      <point x="572" y="639" type="line"/>
      <point x="535" y="665"/>
      <point x="452" y="698"/>
      <point x="338" y="698" type="curve" smooth="yes"/>
      <point x="193" y="698"/>
      <point x="90" y="632"/>
      <point x="90" y="530" type="curve" smooth="yes"/>
      <point x="90" y="408"/>
      <point x="213" y="374"/>
      <point x="314" y="350" type="curve" smooth="yes"/>
      <point x="437" y="323"/>
      <point x="563" y="305"/>
      <point x="563" y="188" type="curve" smooth="yes"/>
      <point x="563" y="85"/>
      <point x="467" y="39"/>
    </contour>
  </outline>
</glyph>
<glyph name="two" format="2">
  <advance width="664"/>
  <unicode hex="0032"/>
  <outline>
    <contour>
      <point x="400" y="37" type="line" smooth="yes"/>
      <point x="501" y="37"/>
      <point x="543" y="41"/>
      <point x="547" y="77" type="curve" smooth="yes"/>
      <point x="557" y="165" type="line"/>
      <point x="584" y="165" type="line"/>
      <point x="584" y="0" type="line"/>
      <point x="72" y="0" type="line"/>
      <point x="72" y="44" type="line"/>
      <point x="310.42169553393995" y="168.21970691684268"/>
      <point x="517.0" y="290.0"/>
      <point x="517" y="440" type="curve" smooth="yes"/>
      <point x="517" y="544"/>
      <point x="435" y="588.0"/>
      <point x="326" y="588" type="curve" smooth="yes"/>
      <point x="234" y="588"/>
      <point x="165.84930664764363" y="559.1126568540546"/>
      <point x="119" y="518" type="curve"/>
      <point x="135.0" y="547.0"/>
      <point x="120.0" y="550.0"/>
      <point x="147" y="554" type="curve"/>
      <point x="147" y="458" type="line"/>
      <point x="98" y="458" type="line"/>
      <point x="98" y="549" type="line"/>
      <point x="139.55375716134844" y="581.6493806267738"/>
      <point x="218" y="618"/>
      <point x="326" y="618" type="curve" smooth="yes"/>
      <point x="469" y="618.0"/>
      <point x="560.0" y="558.0"/>
      <point x="560" y="440" type="curve" smooth="yes"/>
      <point x="560.0" y="277"/>
      <point x="318.93057308332845" y="135.46310209780663"/>
      <point x="105" y="29" type="curve"/>
      <point x="103.31239815122169" y="29.84380092438916"/>
      <point x="102.55155255532" y="34.103105110640016"/>
      <point x="104" y="37" type="curve"/>
    </contour>
  </outline>
</glyph>
<glyph name="three" format="2">
  <advance width="664"/>
  <unicode hex="0033"/>
  <outline>
    <contour>
      <point x="335" y="-60" type="curve" smooth="yes"/>
      <point x="466.0" y="-60.0"/>
      <point x="546" y="6"/>
      <point x="546" y="110" type="curve" smooth="yes"/>
      <point x="546" y="205"/>
      <point x="470.97021276595746" y="269"/>
      <point x="314" y="269" type="curve" smooth="yes"/>
      <point x="227" y="269" type="line"/>
      <point x="227" y="299" type="line"/>
      <point x="300" y="299" type="line" smooth="yes"/>
      <point x="419.2877358490566" y="299"/>
      <point x="509" y="355"/>
      <point x="509" y="442" type="curve" smooth="yes"/>
      <point x="509" y="548"/>
      <point x="434" y="588.0"/>
      <point x="326" y="588" type="curve" smooth="yes"/>
      <point x="226" y="588"/>
      <point x="164" y="559"/>
      <point x="132" y="527" type="curve"/>
      <point x="136" y="551"/>
      <point x="153" y="571"/>
      <point x="153" y="573" type="curve"/>
      <point x="153" y="470" type="line"/>
      <point x="104" y="470" type="line"/>
      <point x="104" y="552" type="line"/>
      <point x="139" y="581"/>
      <point x="208" y="618"/>
      <point x="329" y="618" type="curve" smooth="yes"/>
      <point x="465" y="618"/>
      <point x="552" y="556"/>
      <point x="552" y="454" type="curve" smooth="yes"/>
      <point x="552.0" y="340.0"/>
      <point x="440.59574468085106" y="279.0"/>
      <point x="314" y="279" type="curve"/>
      <point x="335" y="289" type="line"/>
      <point x="521" y="289.0"/>
      <point x="589" y="211"/>
      <point x="589" y="110" type="curve" smooth="yes"/>
      <point x="589" y="-11"/>
      <point x="487.0" y="-90.0"/>
      <point x="335" y="-90" type="curve" smooth="yes"/>
      <point x="181" y="-90"/>
      <point x="82" y="-17"/>
      <point x="37" y="75" type="curve"/>
      <point x="67" y="93" type="line"/>
      <point x="101" y="17"/>
      <point x="193" y="-60"/>
    </contour>
  </outline>
</glyph>
<glyph name="seven" format="2">
  <advance width="664"/>
  <unicode hex="0037"/>
  <outline>
    <contour>
      <point x="276" y="572" type="line" smooth="yes"/>
      <point x="167.0" y="572.0"/>
      <point x="139" y="565"/>
      <point x="135" y="529" type="curve" smooth="yes"/>
      <point x="125" y="441" type="line"/>
      <point x="98" y="441" type="line"/>
      <point x="98" y="609" type="line"/>
      <point x="627" y="609" type="line"/>
      <point x="627" y="570" type="line"/>
      <point x="481" y="409"/>
      <point x="344" y="238"/>
      <point x="314" y="-77" type="curve"/>
      <point x="270" y="-77" type="line"/>
      <point x="303.00316115705465" y="244.03074943680429"/>
      <point x="458" y="438"/>
      <point x="602" y="585" type="curve"/>
      <point x="610" y="572" type="line"/>
    </contour>
  </outline>
</glyph>
<glyph name="nine" format="2">
  <advance width="664"/>
  <unicode hex="0039"/>
  <outline>
    <contour>
      <point x="117" y="-62" type="line"/>
      <point x="379.5984009693059" y="-44.96117245619008"/>
      <point x="554" y="106"/>
      <point x="554" y="336" type="curve" smooth="yes"/>
      <point x="554.0" y="501.0"/>
      <point x="459" y="589"/>
      <point x="325" y="589" type="curve" smooth="yes"/>
      <point x="187" y="589"/>
      <point x="102.0" y="501.0"/>
      <point x="102" y="390" type="curve" smooth="yes"/>
      <point x="102.0" y="285.42857142857144"/>
      <point x="180.0" y="207.0"/>
      <point x="309" y="207" type="curve" smooth="yes"/>
      <point x="425.0" y="207.0"/>
      <point x="517.7633584499918" y="282.5995296846015"/>
      <point x="570" y="371" type="curve"/>
      <point x="582" y="347" type="line"/>
      <point x="536" y="258"/>
      <point x="433" y="177"/>
      <point x="307" y="177" type="curve" smooth="yes"/>
      <point x="154" y="177"/>
      <point x="59" y="265"/>
      <point x="59" y="390" type="curve" smooth="yes"/>
      <point x="59" y="518"/>
      <point x="166" y="619"/>
      <point x="325" y="619" type="curve" smooth="yes"/>
      <point x="481" y="619"/>
      <point x="597" y="515"/>
      <point x="597" y="336" type="curve" smooth="yes"/>
      <point x="597" y="102"/>
      <point x="416" y="-76"/>
      <point x="122" y="-93" type="curve"/>
    </contour>
  </outline>
</glyph>
<glyph name="D" format="2">
  <advance width="813"/>
  <unicode hex="0044"/>
  <anchor x="401" y="741.0" name="top"/>
  <anchor x="401" y="0.0" name="bottom"/>
  <outline>
    <contour>
      <point x="52" y="680" type="line"/>
      <point x="66" y="680" type="line" smooth="yes"/>
      <point x="114" y="680"/>
      <point x="150" y="672"/>
      <point x="150" y="647" type="curve" smooth="yes"/>
      <point x="150" y="63" type="line" smooth="yes"/>
      <point x="150" y="36"/>
      <point x="114" y="30"/>
      <point x="66" y="30" type="curve" smooth="yes"/>
      <point x="52" y="30" type="line"/>
      <point x="52" y="0" type="line"/>
      <point x="337" y="0" type="line" smooth="yes"/>
      <point x="609.2401847575057" y="0"/>
      <point x="758.0" y="141"/>
      <point x="758" y="357" type="curve" smooth="yes"/>
      <point x="758.0" y="574.0"/>
      <point x="607.2956120092379" y="710"/>
      <point x="337" y="710" type="curve" smooth="yes"/>
      <point x="52" y="710" type="line"/>
    </contour>
    <contour>
      <point x="337" y="680" type="line" smooth="yes"/>
      <point x="574.4615384615385" y="680"/>
      <point x="715.0" y="562.0"/>
      <point x="715" y="357" type="curve" smooth="yes"/>
      <point x="715.0" y="152"/>
      <point x="575.4307692307692" y="30"/>
      <point x="337" y="30" type="curve" smooth="yes"/>
      <point x="190" y="30" type="line"/>
      <point x="190" y="680" type="line"/>
    </contour>
  </outline>
</glyph>
<glyph name="G" format="2">
  <advance width="845"/>
  <unicode hex="0047"/>
  <anchor x="422" y="741.0" name="top"/>
  <anchor x="422" y="0.0" name="bottom"/>
  <outline>
    <contour>
      <point x="727" y="292" type="line" smooth="yes"/>
      <point x="727" y="318"/>
      <point x="763" y="323"/>
      <point x="812" y="323" type="curve" smooth="yes"/>
      <point x="817" y="323" type="line"/>
      <point x="817" y="353" type="line"/>
      <point x="582" y="353" type="line"/>
      <point x="582" y="323" type="line"/>
      <point x="595" y="323" type="line" smooth="yes"/>
      <point x="650" y="323"/>
      <point x="693" y="318"/>
      <point x="693" y="292" type="curve" smooth="yes"/>
      <point x="693" y="108" type="line"/>
      <point x="662" y="80"/>
      <point x="583" y="20"/>
      <point x="449" y="20" type="curve" smooth="yes"/>
      <point x="239" y="20"/>
      <point x="97" y="152"/>
      <point x="97" y="355" type="curve" smooth="yes"/>
      <point x="97" y="557"/>
      <point x="240" y="690"/>
      <point x="421" y="690" type="curve" smooth="yes"/>
      <point x="570" y="690"/>
      <point x="662" y="613"/>
      <point x="699" y="511" type="curve"/>
      <point x="729" y="511" type="line"/>
      <point x="729" y="710" type="line"/>
      <point x="703" y="710" type="line"/>
      <point x="689" y="553" type="line"/>
      <point x="703" y="572" type="line"/>
      <point x="659" y="665"/>
      <point x="554" y="720"/>
      <point x="421" y="720" type="curve" smooth="yes"/>
      <point x="215" y="720"/>
      <point x="54" y="569"/>
      <point x="54" y="355" type="curve" smooth="yes"/>
      <point x="54" y="137"/>
      <point x="211" y="-10"/>
      <point x="447" y="-10" type="curve" smooth="yes"/>
      <point x="585" y="-10"/>
      <point x="687" y="48"/>
      <point x="727" y="92" type="curve"/>
    </contour>
  </outline>
</glyph>
<glyph name="P" format="2">
  <advance width="680"/>
  <unicode hex="0050"/>
  <outline>
    <contour>
      <point x="188" y="40" type="line" smooth="yes"/>
      <point x="188" y="33"/>
      <point x="231" y="30"/>
      <point x="263" y="30" type="curve" smooth="yes"/>
      <point x="295" y="30" type="line"/>
      <point x="295" y="0" type="line"/>
      <point x="52" y="0" type="line"/>
      <point x="52" y="30" type="line"/>
      <point x="65" y="30" type="line" smooth="yes"/>
      <point x="113" y="30"/>
      <point x="148" y="36"/>
      <point x="148" y="63" type="curve" smooth="yes"/>
      <point x="148" y="647" type="line" smooth="yes"/>
      <point x="148" y="674"/>
      <point x="113" y="680"/>
      <point x="65" y="680" type="curve" smooth="yes"/>
      <point x="52" y="680" type="line"/>
      <point x="52" y="710" type="line"/>
      <point x="376" y="710" type="line" smooth="yes"/>
      <point x="554.3212996389892" y="710"/>
      <point x="643.0" y="632.0"/>
      <point x="643" y="508" type="curve" smooth="yes"/>
      <point x="643.0" y="384.0"/>
      <point x="550.3922261484099" y="300"/>
      <point x="370" y="300" type="curve" smooth="yes"/>
      <point x="169" y="300" type="line"/>
      <point x="169" y="330" type="line"/>
      <point x="370" y="330" type="line" smooth="yes"/>
      <point x="522.375" y="330"/>
      <point x="600.0" y="399.0"/>
      <point x="600" y="507" type="curve" smooth="yes"/>
      <point x="600.0" y="617.0"/>
      <point x="521.5042735042734" y="680"/>
      <point x="376" y="680" type="curve" smooth="yes"/>
      <point x="188" y="680" type="line"/>
    </contour>
  </outline>
</glyph>
<glyph name="h" format="2">
  <advance width="668"/>
  <unicode hex="0068"/>
  <anchor x="343" y="755.0" name="top"/>
  <anchor x="329" y="0.0" name="bottom"/>
  <outline>
    <contour>
      <point x="163" y="735" type="line"/>
      <point x="40" y="735" type="line"/>
      <point x="40" y="710" type="line"/>
      <point x="53" y="708" type="line" smooth="yes"/>
      <point x="100.8550319912483" y="700.6376873859618"/>
      <point x="123" y="695"/>
      <point x="123" y="669" type="curve" smooth="yes"/>
      <point x="123" y="59" type="line" smooth="yes"/>
      <point x="123" y="33.22222222222222"/>
      <point x="89.0" y="27"/>
      <point x="43" y="27" type="curve" smooth="yes"/>
      <point x="40" y="27" type="line"/>
      <point x="40" y="0" type="line"/>
      <point x="236" y="0" type="line"/>
      <point x="236" y="27" type="line"/>
      <point x="232" y="27" type="line" smooth="yes"/>
      <point x="205" y="27"/>
      <point x="163" y="30"/>
      <point x="163" y="37" type="curve"/>
    </contour>
    <contour>
      <point x="632" y="0" type="line"/>
      <point x="632" y="27" type="line"/>
      <point x="630" y="27" type="line" smooth="yes"/>
      <point x="583" y="27"/>
      <point x="550" y="33"/>
      <point x="550" y="59" type="curve" smooth="yes"/>
      <point x="550" y="361" type="line" smooth="yes"/>
      <point x="550" y="470.0"/>
      <point x="485" y="518.0"/>
      <point x="377" y="518" type="curve" smooth="yes"/>
      <point x="294" y="518.0"/>
      <point x="218" y="479"/>
      <point x="159" y="409" type="curve"/>
      <point x="159" y="365" type="line"/>
      <point x="214" y="437"/>
      <point x="288" y="485.0"/>
      <point x="370" y="485" type="curve" smooth="yes"/>
      <point x="472" y="485.0"/>
      <point x="510" y="444.0"/>
      <point x="510" y="350" type="curve" smooth="yes"/>
      <point x="510" y="37" type="line" smooth="yes"/>
      <point x="510" y="30"/>
      <point x="467" y="27"/>
      <point x="440" y="27" type="curve" smooth="yes"/>
      <point x="438" y="27" type="line"/>
      <point x="438" y="0" type="line"/>
    </contour>
  </outline>
</glyph>
<glyph name="j" format="2">
  <advance width="270"/>
  <unicode hex="006A"/>
  <anchor x="137" y="551.0" name="top"/>
  <outline>
    <contour>
      <point x="117" y="-86" type="line" smooth="yes"/>
      <point x="117" y="-175"/>
      <point x="76" y="-204"/>
      <point x="9" y="-204" type="curve" smooth="yes"/>
      <point x="-31" y="-204"/>
      <point x="-62" y="-194"/>
      <point x="-87" y="-186" type="curve"/>
      <point x="-87" y="-220" type="line"/>
      <point x="-66" y="-228"/>
      <point x="-37" y="-236"/>
      <point x="9" y="-236" type="curve" smooth="yes"/>
      <point x="84" y="-236"/>
      <point x="157" y="-206"/>
      <point x="157" y="-86" type="curve" smooth="yes"/>
      <point x="157" y="508" type="line"/>
      <point x="36" y="508" type="line"/>
      <point x="36" y="483" type="line"/>
      <point x="48" y="481" type="line" smooth="yes"/>
      <point x="95.88479590010235" y="473.0192006833163"/>
      <point x="117" y="468.30232558139534"/>
      <point x="117" y="442" type="curve" smooth="yes"/>
    </contour>
    <contour>
      <point x="119" y="656" type="curve" smooth="yes"/>
      <point x="142" y="656"/>
      <point x="161" y="670"/>
      <point x="161" y="696" type="curve" smooth="yes"/>
      <point x="161" y="722"/>
      <point x="142" y="736"/>
      <point x="119" y="736" type="curve" smooth="yes"/>
      <point x="96" y="736"/>
      <point x="77" y="722"/>
      <point x="77" y="696" type="curve" smooth="yes"/>
      <point x="77" y="670"/>
      <point x="96" y="656"/>
    </contour>
  </outline>
</glyph>
<glyph name="k" format="2">
  <advance width="641"/>
  <unicode hex="006B"/>
  <anchor x="318" y="0.0" name="bottom"/>
  <outline>
    <contour>
      <point x="617" y="0" type="line"/>
      <point x="617" y="28" type="line"/>
      <point x="614" y="28" type="line"/>
      <point x="570" y="28.0"/>
      <point x="547" y="36"/>
      <point x="511" y="67" type="curve" smooth="yes"/>
      <point x="251" y="292" type="line"/>
      <point x="252" y="274" type="line"/>
      <point x="481" y="450" type="line" smooth="yes"/>
      <point x="506" y="469"/>
      <point x="529" y="480.0"/>
      <point x="576" y="480" type="curve"/>
      <point x="579" y="480" type="line"/>
      <point x="579" y="508" type="line"/>
      <point x="372" y="508" type="line"/>
      <point x="372" y="480" type="line"/>
      <point x="377" y="480" type="line"/>
      <point x="426" y="480.0"/>
      <point x="449.0" y="477.0"/>
      <point x="449" y="465" type="curve"/>
      <point x="210" y="281" type="line"/>
      <point x="210" y="276" type="line"/>
      <point x="487" y="39" type="line"/>
      <point x="487" y="31"/>
      <point x="450" y="28"/>
      <point x="424" y="28" type="curve"/>
      <point x="417" y="28" type="line"/>
      <point x="417" y="0" type="line"/>
    </contour>
    <contour>
      <point x="162" y="735" type="line"/>
      <point x="40" y="735" type="line"/>
      <point x="40" y="710" type="line"/>
      <point x="53" y="708" type="line" smooth="yes"/>
      <point x="99.87733356983817" y="700.7881025277172"/>
      <point x="122" y="695"/>
      <point x="122" y="668" type="curve" smooth="yes"/>
      <point x="122" y="59" type="line" smooth="yes"/>
      <point x="122" y="33.22222222222222"/>
      <point x="89.0" y="27"/>
      <point x="42" y="27" type="curve" smooth="yes"/>
      <point x="40" y="27" type="line"/>
      <point x="40" y="0" type="line"/>
      <point x="235" y="0" type="line"/>
      <point x="235" y="27" type="line"/>
      <point x="231" y="27" type="line" smooth="yes"/>
      <point x="206" y="27"/>
      <point x="162" y="30"/>
      <point x="162" y="38" type="curve" smooth="yes"/>
    </contour>
  </outline>
</glyph>
<glyph name="macron" format="2">
  <advance width="581"/>
  <unicode hex="00AF"/>
  <anchor x="290.48" y="571.792" name="_top"/>
  <outline>
    <contour>
      <point x="147" y="689" type="line"/>
      <point x="147" y="657" type="line"/>
      <point x="433" y="657" type="line"/>
      <point x="433" y="689" type="line"/>
    </contour>
  </outline>
</glyph>
<glyph name="dcroat" format="2">
  <advance width="684"/>
  <unicode hex="0111"/>
  <outline>
    <contour>
      <point x="95" y="250" type="curve" smooth="yes"/>
      <point x="95" y="391"/>
      <point x="174" y="487"/>
      <point x="311" y="487" type="curve" smooth="yes"/>
      <point x="411" y="487"/>
      <point x="482" y="423"/>
      <point x="529" y="324" type="curve"/>
      <point x="550" y="345" type="line"/>
      <point x="491" y="456"/>
      <point x="425" y="518"/>
      <point x="308" y="518" type="curve" smooth="yes"/>
      <point x="156" y="518"/>
      <point x="51" y="408"/>
      <point x="51" y="250" type="curve" smooth="yes"/>
      <point x="51" y="93"/>
      <point x="144" y="-10"/>
      <point x="291" y="-10" type="curve" smooth="yes"/>
      <point x="416" y="-10"/>
      <point x="488" y="60"/>
      <point x="561" y="170" type="curve"/>
      <point x="544" y="197" type="line"/>
      <point x="479" y="93"/>
      <point x="403" y="21"/>
      <point x="298" y="21" type="curve" smooth="yes"/>
      <point x="163" y="21"/>
      <point x="95" y="109"/>
    </contour>
    <contour>
      <point x="523" y="735" type="line"/>
      <point x="523" y="137" type="line"/>
      <point x="522" y="132" type="line"/>
      <point x="522" y="0" type="line"/>
      <point x="661" y="0" type="line"/>
      <point x="661" y="28" type="line"/>
      <point x="660" y="28" type="line"/>
      <point x="604" y="28"/>
      <point x="564" y="35"/>
      <point x="564" y="64" type="curve" smooth="yes"/>
      <point x="564" y="735" type="line"/>
    </contour>
    <contour>
      <point x="677" y="632" type="line"/>
      <point x="280" y="632" type="line"/>
      <point x="280" y="601" type="line"/>
      <point x="677" y="601" type="line"/>
    </contour>
  </outline>
</glyph>
<glyph name="eogonek" format="2">
  <advance width="591"/>
  <unicode hex="0119"/>
  <outline>
    <contour>
      <point x="414" y="19" type="line"/>
      <point x="333" y="-25"/>
      <point x="246" y="-69"/>
      <point x="246" y="-140" type="curve" smooth="yes"/>
      <point x="246" y="-198"/>
      <point x="295" y="-233"/>
      <point x="354" y="-233" type="curve" smooth="yes"/>
      <point x="403" y="-233"/>
      <point x="443" y="-211"/>
      <point x="475" y="-180" type="curve"/>
      <point x="453" y="-160" type="line"/>
      <point x="427" y="-182"/>
      <point x="401" y="-202"/>
      <point x="360" y="-202" type="curve" smooth="yes"/>
      <point x="321" y="-202"/>
      <point x="287" y="-180"/>
      <point x="287" y="-140" type="curve" smooth="yes"/>
      <point x="287" y="-70"/>
      <point x="388" y="-25"/>
      <point x="467" y="27" type="curve" smooth="yes"/>
      <point x="501" y="49"/>
      <point x="520" y="73"/>
      <point x="537" y="100" type="curve"/>
      <point x="512" y="124" type="line"/>
      <point x="479" y="71"/>
      <point x="421" y="19"/>
      <point x="317" y="19" type="curve" smooth="yes"/>
      <point x="192" y="19"/>
      <point x="94" y="103"/>
      <point x="94" y="249" type="curve" smooth="yes"/>
      <point x="94" y="396"/>
      <point x="184" y="487"/>
      <point x="307" y="487" type="curve" smooth="yes"/>
      <point x="432" y="487"/>
      <point x="489" y="413"/>
      <point x="496" y="265" type="curve"/>
      <point x="513" y="281" type="line"/>
      <point x="73" y="281" type="line"/>
      <point x="75" y="250" type="line"/>
      <point x="539" y="250" type="line"/>
      <point x="537" y="423"/>
      <point x="460" y="518"/>
      <point x="307" y="518" type="curve" smooth="yes"/>
      <point x="160" y="518"/>
      <point x="51" y="409"/>
      <point x="51" y="251" type="curve" smooth="yes"/>
      <point x="51" y="90"/>
      <point x="168" y="-12"/>
      <point x="318" y="-12" type="curve" smooth="yes"/>
      <point x="348" y="-12"/>
      <point x="378" y="-8"/>
      <point x="403" y="-1" type="curve"/>
    </contour>
  </outline>
</glyph>
<glyph name="dotaccent" format="2">
  <advance width="580"/>
  <unicode hex="02D9"/>
  <anchor x="290.48" y="526.0" name="_top"/>
  <outline>
    <contour>
      <point x="292" y="655" type="curve" smooth="yes"/>
      <point x="317" y="655"/>
      <point x="336" y="670"/>
      <point x="336" y="696" type="curve" smooth="yes"/>
      <point x="336" y="723"/>
      <point x="317" y="737"/>
      <point x="292" y="737" type="curve" smooth="yes"/>
      <point x="266" y="737"/>
      <point x="248" y="723"/>
      <point x="248" y="696" type="curve" smooth="yes"/>
      <point x="248" y="670"/>
      <point x="266" y="655"/>
    </contour>
  </outline>
</glyph>
<glyph name="quoteright" format="2">
  <advance width="217"/>
  <unicode hex="2019"/>
  <outline>
    <contour>
      <point x="72" y="519" type="line"/>
      <point x="131" y="561"/>
      <point x="160.0" y="615"/>
      <point x="160" y="669" type="curve" smooth="yes"/>
      <point x="160" y="701"/>
      <point x="142" y="715"/>
      <point x="119" y="715" type="curve" smooth="yes"/>
      <point x="99" y="715"/>
      <point x="84" y="700"/>
      <point x="84" y="682" type="curve" smooth="yes"/>
      <point x="84" y="661"/>
      <point x="97" y="648"/>
      <point x="119" y="648" type="curve" smooth="yes"/>
      <point x="136" y="648"/>
      <point x="144" y="655"/>
      <point x="151" y="665" type="curve"/>
      <point x="145.64285714285714" y="665.0"/>
      <point x="134.9636701336752" y="662.0363298663248"/>
      <point x="136" y="661" type="curve"/>
      <point x="136.0" y="621.3174603174604"/>
      <point x="103.87333084925089" y="571.9227103486954"/>
      <point x="45" y="536" type="curve"/>
    </contour>
  </outline>
</glyph>
<glyph name="perthousand" format="2">
  <advance width="1284"/>
  <unicode hex="2030"/>
  <outline>
    <contour>
      <point x="225" y="413" type="curve" smooth="yes"/>
      <point x="154" y="413"/>
      <point x="110" y="469"/>
      <point x="110" y="551" type="curve" smooth="yes"/>
      <point x="110" y="633"/>
      <point x="154" y="689"/>
      <point x="225" y="689" type="curve" smooth="yes"/>
      <point x="297" y="689"/>
      <point x="341" y="633"/>
      <point x="341" y="551" type="curve" smooth="yes"/>
      <point x="341" y="469"/>
      <point x="297" y="413"/>
    </contour>
    <contour>
      <point x="225" y="382" type="curve" smooth="yes"/>
      <point x="319" y="382"/>
      <point x="387" y="454"/>
      <point x="387" y="551" type="curve" smooth="yes"/>
      <point x="387" y="649"/>
      <point x="319" y="720"/>
      <point x="225" y="720" type="curve" smooth="yes"/>
      <point x="131" y="720"/>
      <point x="64" y="648"/>
      <point x="64" y="551" type="curve" smooth="yes"/>
      <point x="64" y="453"/>
      <point x="131" y="382"/>
    </contour>
    <contour>
      <point x="96" y="0" type="line"/>
      <point x="822" y="710" type="line"/>
      <point x="779" y="710" type="line"/>
      <point x="53" y="0" type="line"/>
    </contour>
    <contour>
      <point x="645" y="21" type="curve" smooth="yes"/>
      <point x="573" y="21"/>
      <point x="529" y="77"/>
      <point x="529" y="159" type="curve" smooth="yes"/>
      <point x="529" y="241"/>
      <point x="573" y="297"/>
      <point x="645" y="297" type="curve" smooth="yes"/>
      <point x="717" y="297"/>
      <point x="760" y="241"/>
      <point x="760" y="159" type="curve" smooth="yes"/>
      <point x="760" y="77"/>
      <point x="717" y="21"/>
    </contour>
    <contour>
      <point x="645" y="-10" type="curve" smooth="yes"/>
      <point x="739" y="-10"/>
      <point x="806" y="62"/>
      <point x="806" y="159" type="curve" smooth="yes"/>
      <point x="806" y="257"/>
      <point x="739" y="328"/>
      <point x="645" y="328" type="curve" smooth="yes"/>
      <point x="551" y="328"/>
      <point x="483" y="256"/>
      <point x="483" y="159" type="curve" smooth="yes"/>
      <point x="483" y="61"/>
      <point x="551" y="-10"/>
    </contour>
    <contour>
      <point x="1067" y="21" type="curve" smooth="yes"/>
      <point x="994" y="21"/>
      <point x="951" y="77"/>
      <point x="951" y="159" type="curve" smooth="yes"/>
      <point x="951" y="241"/>
      <point x="994" y="297"/>
      <point x="1067" y="297" type="curve" smooth="yes"/>
      <point x="1138" y="297"/>
      <point x="1182" y="241"/>
      <point x="1182" y="159" type="curve" smooth="yes"/>
      <point x="1182" y="77"/>
      <point x="1138" y="21"/>
    </contour>
    <contour>
      <point x="1067" y="-10" type="curve" smooth="yes"/>
      <point x="1160" y="-10"/>
      <point x="1228" y="62"/>
      <point x="1228" y="159" type="curve" smooth="yes"/>
      <point x="1228" y="257"/>
      <point x="1160" y="328"/>
      <point x="1067" y="328" type="curve" smooth="yes"/>
      <point x="973" y="328"/>
      <point x="905" y="256"/>
      <point x="905" y="159" type="curve" smooth="yes"/>
      <point x="905" y="61"/>
      <point x="973" y="-10"/>
    </contour>
  </outline>
</glyph>
<glyph name="peseta" format="2">
  <advance width="650"/>
  <unicode hex="20A7"/>
  <outline>
    <contour>
      <point x="-9" y="0" type="line"/>
      <point x="220" y="0" type="line"/>
      <point x="220" y="31" type="line"/>
      <point x="190" y="31" type="line" smooth="yes"/>
      <point x="153" y="31"/>
      <point x="119" y="34"/>
      <point x="119" y="41" type="curve" smooth="yes"/>
      <point x="119" y="278" type="line"/>
      <point x="137" y="278" type="line" smooth="yes"/>
      <point x="307" y="278"/>
      <point x="391" y="367"/>
      <point x="391" y="497" type="curve" smooth="yes"/>
      <point x="391" y="628"/>
      <point x="311" y="710"/>
      <point x="143" y="710" type="curve" smooth="yes"/>
      <point x="-9" y="710" type="line"/>
      <point x="-9" y="679" type="line"/>
      <point x="4" y="679" type="line" smooth="yes"/>
      <point x="49" y="679"/>
      <point x="78" y="672"/>
      <point x="78" y="643" type="curve" smooth="yes"/>
      <point x="78" y="67" type="line" smooth="yes"/>
      <point x="78" y="38"/>
      <point x="49" y="31"/>
      <point x="4" y="31" type="curve" smooth="yes"/>
      <point x="-9" y="31" type="line"/>
    </contour>
    <contour>
      <point x="143" y="679" type="line" smooth="yes"/>
      <point x="284" y="679"/>
      <point x="347" y="612"/>
      <point x="347" y="496" type="curve" smooth="yes"/>
      <point x="347" y="383"/>
      <point x="285" y="309"/>
      <point x="137" y="309" type="curve" smooth="yes"/>
      <point x="119" y="309" type="line"/>
      <point x="119" y="679" type="line"/>
    </contour>
    <contour>
      <point x="370" y="477" type="line"/>
      <point x="655" y="477" type="line"/>
      <point x="655" y="508" type="line"/>
      <point x="518" y="508" type="line"/>
      <point x="481" y="554" type="line"/>
      <point x="481" y="512"/>
      <point x="451" y="503"/>
      <point x="391" y="503" type="curve" smooth="yes"/>
      <point x="370" y="503" type="line"/>
    </contour>
    <contour>
      <point x="515" y="111" type="curve" smooth="yes"/>
      <point x="515" y="648" type="line"/>
      <point x="481" y="648" type="line"/>
      <point x="481" y="500" type="line"/>
      <point x="474" y="492" type="line"/>
      <point x="474" y="111" type="line" smooth="yes"/>
      <point x="474" y="24"/>
      <point x="533" y="-11"/>
      <point x="600" y="-11" type="curve" smooth="yes"/>
      <point x="635" y="-11"/>
      <point x="660" y="-5"/>
      <point x="672" y="1" type="curve"/>
      <point x="672" y="34" type="line"/>
      <point x="663" y="31"/>
      <point x="635" y="23"/>
      <point x="608" y="23" type="curve" smooth="yes"/>
      <point x="555" y="23"/>
      <point x="515" y="53"/>
    </contour>
  </outline>
</glyph>
<glyph name="Euro" format="2">
  <advance width="650"/>
  <unicode hex="20AC"/>
  <outline>
    <contour>
      <point x="26" y="438" type="line"/>
      <point x="26" y="406" type="line"/>
      <point x="439" y="406" type="line"/>
      <point x="439" y="438" type="line"/>
    </contour>
    <contour>
      <point x="26" y="286" type="line"/>
      <point x="26" y="255" type="line"/>
      <point x="396" y="255" type="line"/>
      <point x="396" y="286" type="line"/>
    </contour>
    <contour>
      <point x="401" y="-10" type="curve" smooth="yes"/>
      <point x="528" y="-10"/>
      <point x="587" y="52"/>
      <point x="623" y="132" type="curve"/>
      <point x="596" y="151" type="line"/>
      <point x="568" y="87"/>
      <point x="520" y="21"/>
      <point x="401" y="21" type="curve" smooth="yes"/>
      <point x="255" y="21"/>
      <point x="158" y="117"/>
      <point x="158" y="349" type="curve" smooth="yes"/>
      <point x="158" y="599"/>
      <point x="269" y="688"/>
      <point x="416" y="688" type="curve" smooth="yes"/>
      <point x="487" y="688"/>
      <point x="552" y="665"/>
      <point x="587" y="624" type="curve"/>
      <point x="590" y="631"/>
      <point x="577" y="662"/>
      <point x="563" y="665" type="curve"/>
      <point x="563" y="574" type="line"/>
      <point x="613" y="574" type="line"/>
      <point x="613" y="655" type="line"/>
      <point x="586" y="684"/>
      <point x="508" y="719"/>
      <point x="416" y="719" type="curve" smooth="yes"/>
      <point x="242" y="719"/>
      <point x="114" y="614"/>
      <point x="114" y="349" type="curve" smooth="yes"/>
      <point x="114" y="102"/>
      <point x="230" y="-10"/>
    </contour>
  </outline>
</glyph>
<glyph name="uni20B4" format="2">
  <advance width="650"/>
  <unicode hex="20B4"/>
  <outline>
    <contour>
      <point x="24" y="457" type="line"/>
      <point x="24" y="425" type="line"/>
      <point x="626" y="425" type="line"/>
      <point x="626" y="457" type="line"/>
    </contour>
    <contour>
      <point x="24" y="316" type="line"/>
      <point x="24" y="285" type="line"/>
      <point x="626" y="285" type="line"/>
      <point x="626" y="316" type="line"/>
    </contour>
    <contour>
      <point x="334" y="720" type="curve" smooth="yes"/>
      <point x="230" y="720"/>
      <point x="153" y="682"/>
      <point x="119" y="653" type="curve"/>
      <point x="119" y="567" type="line"/>
      <point x="172" y="567" type="line"/>
      <point x="172" y="668" type="line"/>
      <point x="156" y="664"/>
      <point x="136" y="641"/>
      <point x="143" y="620" type="curve"/>
      <point x="178" y="657"/>
      <point x="241" y="689"/>
      <point x="335" y="689" type="curve" smooth="yes"/>
      <point x="442" y="689"/>
      <point x="503" y="644"/>
      <point x="503" y="567" type="curve" smooth="yes"/>
      <point x="503" y="512"/>
      <point x="478" y="472"/>
      <point x="442" y="445" type="curve"/>
      <point x="500" y="444" type="line"/>
      <point x="527" y="473"/>
      <point x="544" y="515"/>
      <point x="544" y="563" type="curve" smooth="yes"/>
      <point x="544" y="660"/>
      <point x="465" y="720"/>
    </contour>
    <contour>
      <point x="325" y="-10" type="curve" smooth="yes"/>
      <point x="447" y="-10"/>
      <point x="535" y="39"/>
      <point x="579" y="79" type="curve"/>
      <point x="579" y="167" type="line"/>
      <point x="528" y="167" type="line"/>
      <point x="528" y="71" type="line"/>
      <point x="548" y="76"/>
      <point x="562" y="99"/>
      <point x="554" y="115" type="curve"/>
      <point x="514" y="64"/>
      <point x="432" y="21"/>
      <point x="324" y="21" type="curve" smooth="yes"/>
      <point x="205" y="21"/>
      <point x="121" y="74"/>
      <point x="121" y="167" type="curve" smooth="yes"/>
      <point x="121" y="220"/>
      <point x="145" y="263"/>
      <point x="183" y="291" type="curve"/>
      <point x="131" y="291" type="line"/>
      <point x="98" y="260"/>
      <point x="80" y="222"/>
      <point x="80" y="173" type="curve" smooth="yes"/>
      <point x="80" y="55"/>
      <point x="185" y="-10"/>
    </contour>
  </outline>
</glyph>
<glyph name="minus" format="2">
  <advance width="650"/>
  <unicode hex="2212"/>
  <outline>
    <contour>
      <point x="540" y="357" type="line"/>
      <point x="110" y="357" type="line"/>
      <point x="110" y="325" type="line"/>
      <point x="540" y="325" type="line"/>
    </contour>
  </outline>
</glyph>
<glyph name="approxequal" format="2">
  <advance width="650"/>
  <unicode hex="2248"/>
  <outline>
    <contour>
      <point x="429" y="326" type="curve" smooth="yes"/>
      <point x="508" y="326"/>
      <point x="536" y="393"/>
      <point x="553" y="444" type="curve"/>
      <point x="522" y="453" type="line"/>
      <point x="514" y="425"/>
      <point x="493" y="360"/>
      <point x="427" y="360" type="curve" smooth="yes"/>
      <point x="339" y="360"/>
      <point x="308" y="454"/>
      <point x="201" y="454" type="curve" smooth="yes"/>
      <point x="121" y="454"/>
      <point x="83" y="395"/>
      <point x="72" y="339" type="curve"/>
      <point x="103" y="332" type="line"/>
      <point x="113" y="371"/>
      <point x="137" y="420"/>
      <point x="202" y="420" type="curve" smooth="yes"/>
      <point x="286" y="420"/>
      <point x="329" y="326"/>
    </contour>
    <contour>
      <point x="429" y="119" type="curve" smooth="yes"/>
      <point x="508" y="119"/>
      <point x="536" y="186"/>
      <point x="553" y="237" type="curve"/>
      <point x="522" y="246" type="line"/>
      <point x="513" y="218"/>
      <point x="493" y="153"/>
      <point x="427" y="153" type="curve" smooth="yes"/>
      <point x="339" y="153"/>
      <point x="308" y="247"/>
      <point x="201" y="247" type="curve" smooth="yes"/>
      <point x="121" y="247"/>
      <point x="83" y="188"/>
      <point x="72" y="132" type="curve"/>
      <point x="103" y="125" type="line"/>
      <point x="113" y="164"/>
      <point x="137" y="213"/>
      <point x="202" y="213" type="curve" smooth="yes"/>
      <point x="286" y="213"/>
      <point x="329" y="119"/>
    </contour>
  </outline>
</glyph>
<glyph name="breve_acute.uc" format="2">
  <advance width="592"/>
  <anchor x="292.6456" y="744.0" name="_top"/>
  <outline>
    <contour>
      <point x="372" y="1018" type="curve" smooth="yes"/>
      <point x="269" y="930" type="line"/>
      <point x="269" y="916" type="line"/>
      <point x="284" y="916" type="line"/>
      <point x="410" y="987" type="line" smooth="yes"/>
      <point x="441" y="1006"/>
      <point x="458" y="1017"/>
      <point x="458" y="1034" type="curve" smooth="yes"/>
      <point x="458" y="1047"/>
      <point x="448" y="1056"/>
      <point x="432" y="1056" type="curve" smooth="yes"/>
      <point x="411" y="1056"/>
      <point x="399" y="1042"/>
    </contour>
    <component base="breve.uc" xOffset="37.76600000000001"/>
  </outline>
</glyph>
<glyph name="circumflex_acute" format="2">
  <advance width="592"/>
  <anchor x="269.0116" y="558.0" name="_top"/>
  <outline>
    <contour>
      <point x="481" y="824" type="curve" smooth="yes"/>
      <point x="416" y="707" type="line"/>
      <point x="416" y="693" type="line"/>
      <point x="431" y="693" type="line"/>
      <point x="528" y="799" type="line" smooth="yes"/>
      <point x="544" y="816"/>
      <point x="558" y="831"/>
      <point x="558" y="846" type="curve" smooth="yes"/>
      <point x="558" y="861"/>
      <point x="547" y="871"/>
      <point x="530" y="871" type="curve" smooth="yes"/>
      <point x="508" y="871"/>
      <point x="498" y="854"/>
    </contour>
    <component base="circumflex" xOffset="33.41479999999999"/>
  </outline>
</glyph>
<glyph name="circumflex_grave.uc" format="2">
  <advance width="592"/>
  <anchor x="282.9344" y="696.0" name="_top"/>
  <outline>
    <contour>
      <point x="445" y="926" type="line" smooth="yes"/>
      <point x="420" y="960"/>
      <point x="412" y="975"/>
      <point x="392" y="975" type="curve" smooth="yes"/>
      <point x="377" y="975"/>
      <point x="366" y="966"/>
      <point x="366" y="952" type="curve" smooth="yes"/>
      <point x="366" y="937"/>
      <point x="379" y="924"/>
      <point x="402" y="903" type="curve" smooth="yes"/>
      <point x="481" y="835" type="line"/>
      <point x="496" y="835" type="line"/>
      <point x="496" y="849" type="line"/>
    </contour>
    <component base="circumflex.uc" xOffset="39.40360000000001"/>
  </outline>
</glyph>
<glyph name="dollar.alt" format="2">
  <advance width="650"/>
  <outline>
    <contour>
      <point x="347" y="40" type="curve" smooth="yes"/>
      <point x="233" y="40"/>
      <point x="134" y="70"/>
      <point x="89" y="124" type="curve"/>
      <point x="81" y="112"/>
      <point x="93" y="91"/>
      <point x="111" y="85" type="curve"/>
      <point x="111" y="181" type="line"/>
      <point x="60" y="181" type="line"/>
      <point x="60" y="94" type="line"/>
      <point x="108" y="51"/>
      <point x="214" y="8"/>
      <point x="347" y="8" type="curve" smooth="yes"/>
      <point x="491" y="8"/>
      <point x="607" y="73"/>
      <point x="607" y="196" type="curve" smooth="yes"/>
      <point x="607" y="320"/>
      <point x="480" y="356"/>
      <point x="375" y="380" type="curve" smooth="yes"/>
      <point x="258" y="406"/>
      <point x="141" y="429"/>
      <point x="141" y="533" type="curve" smooth="yes"/>
      <point x="141" y="618"/>
      <point x="225" y="667"/>
      <point x="348" y="667" type="curve" smooth="yes"/>
      <point x="457" y="667"/>
      <point x="523" y="637"/>
      <point x="550" y="606" type="curve"/>
      <point x="564" y="621"/>
      <point x="546" y="635"/>
      <point x="525" y="638" type="curve"/>
      <point x="525" y="552" type="line"/>
      <point x="578" y="552" type="line"/>
      <point x="578" y="636" type="line"/>
      <point x="550" y="660"/>
      <point x="467" y="698"/>
      <point x="348" y="698" type="curve" smooth="yes"/>
      <point x="200" y="698"/>
      <point x="97" y="632"/>
      <point x="97" y="530" type="curve" smooth="yes"/>
      <point x="97" y="407"/>
      <point x="219" y="373"/>
      <point x="320" y="349" type="curve" smooth="yes"/>
      <point x="440" y="322"/>
      <point x="563" y="304"/>
      <point x="563" y="188" type="curve" smooth="yes"/>
      <point x="563" y="85"/>
      <point x="470" y="40"/>
    </contour>
    <contour>
      <point x="361" y="683" type="line"/>
      <point x="361" y="787" type="line"/>
      <point x="321" y="787" type="line"/>
      <point x="321" y="683" type="line"/>
    </contour>
    <contour>
      <point x="321" y="19" type="line"/>
      <point x="321" y="-120" type="line"/>
      <point x="361" y="-120" type="line"/>
      <point x="361" y="19" type="line"/>
    </contour>
  </outline>
</glyph>
<glyph name="fi.alt" format="2">
  <advance width="720"/>
  <outline>
    <contour>
      <point x="40" y="508" type="line"/>
      <point x="40" y="480" type="line"/>
      <point x="507" y="480" type="line"/>
      <point x="507" y="508" type="line"/>
    </contour>
    <contour>
      <point x="539" y="38" type="line" smooth="yes"/>
      <point x="539" y="31"/>
      <point x="487" y="28"/>
      <point x="455" y="28" type="curve" smooth="yes"/>
      <point x="442" y="28" type="line"/>
      <point x="442" y="0" type="line"/>
      <point x="678" y="0" type="line"/>
      <point x="678" y="28" type="line"/>
      <point x="676" y="28" type="line" smooth="yes"/>
      <point x="620" y="28"/>
      <point x="580" y="35"/>
      <point x="580" y="64" type="curve" smooth="yes"/>
      <point x="580" y="508" type="line"/>
      <point x="442" y="508" type="line"/>
      <point x="442" y="480" type="line"/>
      <point x="454" y="480" type="line" smooth="yes"/>
      <point x="513" y="480"/>
      <point x="539" y="466"/>
      <point x="539" y="437" type="curve" smooth="yes"/>
    </contour>
    <contour>
      <point x="161" y="64" type="line" smooth="yes"/>
      <point x="161" y="35"/>
      <point x="123" y="28"/>
      <point x="59" y="28" type="curve" smooth="yes"/>
      <point x="46" y="28" type="line"/>
      <point x="46" y="0" type="line"/>
      <point x="328" y="0" type="line"/>
      <point x="328" y="28" type="line"/>
      <point x="313" y="28" type="line" smooth="yes"/>
      <point x="250" y="28"/>
      <point x="202" y="31"/>
      <point x="202" y="38" type="curve" smooth="yes"/>
      <point x="202" y="579" type="line" smooth="yes"/>
      <point x="202" y="689"/>
      <point x="284" y="721"/>
      <point x="387" y="721" type="curve" smooth="yes"/>
      <point x="457" y="721"/>
      <point x="512" y="706"/>
      <point x="550" y="674" type="curve"/>
      <point x="556" y="701"/>
      <point x="542" y="704"/>
      <point x="521" y="725" type="curve"/>
      <point x="521" y="638" type="line"/>
      <point x="572" y="638" type="line"/>
      <point x="572" y="707" type="line"/>
      <point x="538" y="731"/>
      <point x="479" y="752"/>
      <point x="387" y="752" type="curve" smooth="yes"/>
      <point x="261" y="752"/>
      <point x="161" y="706"/>
      <point x="161" y="579" type="curve" smooth="yes"/>
    </contour>
  </outline>
</glyph>
<glyph name="nine.lin" format="2">
  <advance width="664"/>
  <outline>
    <contour>
      <point x="117" y="16" type="line"/>
      <point x="379" y="33"/>
      <point x="554.0" y="186.00000000000003"/>
      <point x="554" y="427" type="curve" smooth="yes"/>
      <point x="554.0" y="605"/>
      <point x="459" y="690"/>
      <point x="325" y="690" type="curve" smooth="yes"/>
      <point x="187" y="690"/>
      <point x="102.0" y="602"/>
      <point x="102" y="491" type="curve" smooth="yes"/>
      <point x="102" y="386"/>
      <point x="180.0" y="308.0"/>
      <point x="308" y="308" type="curve" smooth="yes"/>
      <point x="425.0" y="308.0"/>
      <point x="517.7633584499918" y="383.5995296846015"/>
      <point x="570" y="472" type="curve"/>
      <point x="582" y="448" type="line"/>
      <point x="535" y="359"/>
      <point x="434" y="278.0"/>
      <point x="306" y="278" type="curve" smooth="yes"/>
      <point x="157.6008064516129" y="278.0"/>
      <point x="59" y="366"/>
      <point x="59" y="491" type="curve" smooth="yes"/>
      <point x="59.0" y="619.0"/>
      <point x="166" y="720"/>
      <point x="325" y="720" type="curve" smooth="yes"/>
      <point x="480.42857142857144" y="720.0"/>
      <point x="597.0" y="616.0"/>
      <point x="597" y="427" type="curve" smooth="yes"/>
      <point x="597.0" y="176.0"/>
      <point x="412" y="1"/>
      <point x="122" y="-15" type="curve"/>
    </contour>
  </outline>
</glyph>
<glyph name="seven.lin" format="2">
  <advance width="664"/>
  <outline>
    <contour>
      <point x="266" y="673" type="line" smooth="yes"/>
      <point x="161.0" y="673"/>
      <point x="129.18372674411773" y="665.816795348236"/>
      <point x="125" y="629" type="curve" smooth="yes"/>
      <point x="115" y="541" type="line"/>
      <point x="87" y="541" type="line"/>
      <point x="87" y="710" type="line"/>
      <point x="617" y="710" type="line"/>
      <point x="617" y="671" type="line"/>
      <point x="468" y="505"/>
      <point x="333" y="338"/>
      <point x="304" y="0" type="curve"/>
      <point x="259" y="0" type="line"/>
      <point x="292.0939807549772" y="345.98252607476235"/>
      <point x="453.18926086736286" y="540.1960201840543"/>
      <point x="593" y="685" type="curve"/>
      <point x="604" y="673" type="line"/>
    </contour>
  </outline>
</glyph>
<glyph name="seven.old" format="2">
  <advance width="650"/>
  <outline>
    <contour>
      <point x="263" y="509" type="line" smooth="yes"/>
      <point x="163" y="509"/>
      <point x="122" y="502"/>
      <point x="118" y="466" type="curve" smooth="yes"/>
      <point x="108" y="376" type="line"/>
      <point x="81" y="376" type="line"/>
      <point x="81" y="548" type="line"/>
      <point x="611" y="548" type="line"/>
      <point x="611" y="509" type="line"/>
      <point x="465" y="341"/>
      <point x="328" y="179"/>
      <point x="296" y="-135" type="curve"/>
      <point x="250" y="-135" type="line"/>
      <point x="287" y="184"/>
      <point x="449" y="376"/>
      <point x="589" y="521" type="curve"/>
      <point x="598" y="509" type="line"/>
    </contour>
  </outline>
</glyph>
<glyph name="three.lin" format="2">
  <advance width="664"/>
  <outline>
    <contour>
      <point x="333" y="689" type="curve" smooth="yes"/>
      <point x="228.0" y="689.0"/>
      <point x="162.61403894747622" y="654.4841050988022"/>
      <point x="132" y="621" type="curve"/>
      <point x="136" y="648"/>
      <point x="154.0" y="671"/>
      <point x="154" y="673" type="curve"/>
      <point x="154" y="570" type="line"/>
      <point x="105" y="570" type="line"/>
      <point x="105" y="651" type="line"/>
      <point x="139.88044300641351" y="679.0981346440553"/>
      <point x="212.0" y="719.0"/>
      <point x="333" y="719" type="curve" smooth="yes"/>
      <point x="466.0" y="719.0"/>
      <point x="560.0" y="651.6011904761905"/>
      <point x="560" y="550" type="curve" smooth="yes"/>
      <point x="560.0" y="424.96132596685084"/>
      <point x="441.5144032921811" y="366.0"/>
      <point x="324" y="366" type="curve"/>
      <point x="337" y="376" type="line"/>
      <point x="516.1760299625469" y="376.0"/>
      <point x="597.0" y="298.2950819672131"/>
      <point x="597" y="196" type="curve" smooth="yes"/>
      <point x="597" y="76"/>
      <point x="485" y="-10"/>
      <point x="332" y="-10" type="curve" smooth="yes"/>
      <point x="183" y="-10"/>
      <point x="88" y="62"/>
      <point x="45" y="156" type="curve"/>
      <point x="75" y="174" type="line"/>
      <point x="112" y="94"/>
      <point x="193" y="20.0"/>
      <point x="332" y="20" type="curve" smooth="yes"/>
      <point x="465" y="20"/>
      <point x="553.0" y="96"/>
      <point x="553" y="196" type="curve" smooth="yes"/>
      <point x="553" y="289"/>
      <point x="471.0" y="359.0"/>
      <point x="306" y="359" type="curve" smooth="yes"/>
      <point x="236" y="359" type="line"/>
      <point x="236" y="389" type="line"/>
      <point x="305" y="389" type="line" smooth="yes"/>
      <point x="424.0" y="389.0"/>
      <point x="516" y="448"/>
      <point x="516" y="544" type="curve" smooth="yes"/>
      <point x="516.0" y="641"/>
      <point x="435.0" y="689.0"/>
    </contour>
  </outline>
</glyph>
<glyph name="three.lintab" format="2">
  <advance width="664"/>
  <outline>
    <contour>
      <point x="333" y="690" type="curve" smooth="yes"/>
      <point x="228" y="690"/>
      <point x="163" y="655"/>
      <point x="132" y="622" type="curve"/>
      <point x="136" y="649"/>
      <point x="154" y="672"/>
      <point x="154" y="674" type="curve"/>
      <point x="154" y="571" type="line"/>
      <point x="105" y="571" type="line"/>
      <point x="105" y="652" type="line"/>
      <point x="140" y="680"/>
      <point x="212" y="720"/>
      <point x="333" y="720" type="curve" smooth="yes"/>
      <point x="466.0" y="720.0"/>
      <point x="560.0" y="652.603550295858"/>
      <point x="560" y="550" type="curve" smooth="yes"/>
      <point x="560" y="425"/>
      <point x="442" y="366"/>
      <point x="324" y="366" type="curve"/>
      <point x="337" y="376" type="line"/>
      <point x="516" y="376"/>
      <point x="597" y="298"/>
      <point x="597" y="196" type="curve" smooth="yes"/>
      <point x="597" y="76"/>
      <point x="485" y="-10"/>
      <point x="332" y="-10" type="curve" smooth="yes"/>
      <point x="183" y="-10"/>
      <point x="88" y="62"/>
      <point x="45" y="156" type="curve"/>
      <point x="75" y="174" type="line"/>
      <point x="112" y="94"/>
      <point x="193" y="20"/>
      <point x="332" y="20" type="curve" smooth="yes"/>
      <point x="465" y="20"/>
      <point x="553" y="96"/>
      <point x="553" y="196" type="curve" smooth="yes"/>
      <point x="553" y="289"/>
      <point x="471" y="359"/>
      <point x="306" y="359" type="curve" smooth="yes"/>
      <point x="236" y="359" type="line"/>
      <point x="236" y="389" type="line"/>
      <point x="305" y="389" type="line" smooth="yes"/>
      <point x="424" y="389"/>
      <point x="516" y="448"/>
      <point x="516" y="544" type="curve" smooth="yes"/>
      <point x="516.0" y="641.6689655172414"/>
      <point x="435.0" y="690.0"/>
    </contour>
  </outline>
</glyph>
<glyph name="tilde.uc" format="2">
  <advance width="581"/>
  <anchor x="290.48" y="694.0" name="_top"/>
  <outline>
    <contour>
      <point x="361" y="772" type="curve" smooth="yes"/>
      <point x="413" y="772"/>
      <point x="439" y="806"/>
      <point x="461" y="864" type="curve"/>
      <point x="431" y="874" type="line"/>
      <point x="414" y="832"/>
      <point x="399" y="806"/>
      <point x="366" y="806" type="curve" smooth="yes"/>
      <point x="312" y="806"/>
      <point x="284" y="876"/>
      <point x="201" y="876" type="curve" smooth="yes"/>
      <point x="151" y="876"/>
      <point x="120" y="844"/>
      <point x="107" y="782" type="curve"/>
      <point x="137" y="771" type="line"/>
      <point x="148" y="817"/>
      <point x="161" y="842"/>
      <point x="198" y="842" type="curve" smooth="yes"/>
      <point x="251" y="842"/>
      <point x="276" y="772"/>
    </contour>
  </outline>
</glyph>
<glyph name="two.lin" format="2">
  <advance width="664"/>
  <outline>
    <contour>
      <point x="333" y="720" type="curve" smooth="yes"/>
      <point x="465.54098360655735" y="720.0"/>
      <point x="578" y="654"/>
      <point x="578" y="527" type="curve" smooth="yes"/>
      <point x="578.0" y="350.0"/>
      <point x="334" y="182"/>
      <point x="102" y="24" type="curve"/>
      <point x="98" y="26"/>
      <point x="96" y="29"/>
      <point x="98" y="32" type="curve"/>
      <point x="405" y="32" type="line" smooth="yes"/>
      <point x="506" y="32"/>
      <point x="547" y="39"/>
      <point x="552" y="80" type="curve" smooth="yes"/>
      <point x="562" y="169" type="line"/>
      <point x="590" y="169" type="line"/>
      <point x="590" y="0" type="line"/>
      <point x="68" y="0" type="line"/>
      <point x="68" y="38" type="line"/>
      <point x="322" y="213"/>
      <point x="534" y="362"/>
      <point x="534" y="527" type="curve" smooth="yes"/>
      <point x="534.0" y="641.0"/>
      <point x="437.52" y="690.0"/>
      <point x="333" y="690" type="curve" smooth="yes"/>
      <point x="226.46724890829694" y="690.0"/>
      <point x="152.47022228151076" y="655.5364444963219"/>
      <point x="105" y="614" type="curve"/>
      <point x="111" y="639"/>
      <point x="119" y="652"/>
      <point x="136" y="656" type="curve"/>
      <point x="136" y="558" type="line"/>
      <point x="87" y="558" type="line"/>
      <point x="87" y="648" type="line"/>
      <point x="127.61703346544533" y="677.7197805844722"/>
      <point x="206.51417004048585" y="720.0"/>
    </contour>
  </outline>
</glyph>
<glyph name="two.old" format="2">
  <advance width="650"/>
  <outline>
    <contour>
      <point x="326" y="527" type="curve" smooth="yes"/>
      <point x="232" y="527"/>
      <point x="163" y="492"/>
      <point x="112" y="448" type="curve"/>
      <point x="132" y="480"/>
      <point x="120" y="485"/>
      <point x="146" y="489" type="curve"/>
      <point x="146" y="392" type="line"/>
      <point x="95" y="392" type="line"/>
      <point x="95" y="482" type="line"/>
      <point x="138" y="515"/>
      <point x="215" y="558"/>
      <point x="326" y="558" type="curve" smooth="yes"/>
      <point x="461" y="558"/>
      <point x="547" y="496"/>
      <point x="547" y="398" type="curve" smooth="yes"/>
      <point x="547" y="241"/>
      <point x="313" y="127"/>
      <point x="110" y="25" type="curve"/>
      <point x="107" y="27"/>
      <point x="104" y="29"/>
      <point x="107" y="32" type="curve"/>
      <point x="386" y="32" type="line" smooth="yes"/>
      <point x="486" y="32"/>
      <point x="527" y="39"/>
      <point x="532" y="75" type="curve" smooth="yes"/>
      <point x="543" y="157" type="line"/>
      <point x="570" y="157" type="line"/>
      <point x="570" y="0" type="line"/>
      <point x="74" y="0" type="line"/>
      <point x="74" y="38" type="line"/>
      <point x="301" y="157"/>
      <point x="502" y="248"/>
      <point x="502" y="398" type="curve" smooth="yes"/>
      <point x="502" y="484"/>
      <point x="433" y="527"/>
    </contour>
  </outline>
</glyph>
<glyph name="two.oldtab" format="2">
  <advance width="664"/>
  <outline>
    <contour>
      <point x="326" y="528" type="curve" smooth="yes"/>
      <point x="234" y="528"/>
      <point x="165" y="501"/>
      <point x="118" y="460" type="curve"/>
      <point x="137" y="491"/>
      <point x="125" y="496"/>
      <point x="151" y="500" type="curve"/>
      <point x="151" y="404" type="line"/>
      <point x="102" y="404" type="line"/>
      <point x="102" y="495" type="line"/>
      <point x="143" y="526"/>
      <point x="218" y="558"/>
      <point x="326" y="558" type="curve" smooth="yes"/>
      <point x="462.56140350877195" y="558.0"/>
      <point x="550.0" y="495.0"/>
      <point x="550" y="396" type="curve" smooth="yes"/>
      <point x="550.0" y="239.0"/>
      <point x="330.42855970728624" y="131.2106253413345"/>
      <point x="117" y="24" type="curve"/>
      <point x="114" y="26"/>
      <point x="111" y="29"/>
      <point x="114" y="32" type="curve"/>
      <point x="395" y="32" type="line" smooth="yes"/>
      <point x="497.0" y="32.0"/>
      <point x="535" y="40"/>
      <point x="541" y="80" type="curve" smooth="yes"/>
      <point x="552" y="157" type="line"/>
      <point x="579" y="157" type="line"/>
      <point x="579" y="0" type="line"/>
      <point x="81" y="0" type="line"/>
      <point x="81" y="38" type="line"/>
      <point x="303.3629095620113" y="154.14491258372914"/>
      <point x="507.0" y="251.0"/>
      <point x="507" y="396" type="curve" smooth="yes"/>
      <point x="507.0" y="480.0"/>
      <point x="435.5783783783784" y="528.0"/>
    </contour>
  </outline>
</glyph>
<glyph name="whitecircle" format="2">
  <advance width="688"/>
  <outline>
    <contour>
      <point x="344" y="80" type="curve" smooth="yes"/>
      <point x="490" y="80"/>
      <point x="606" y="177"/>
      <point x="606" y="304" type="curve" smooth="yes"/>
      <point x="606" y="431"/>
      <point x="490" y="528"/>
      <point x="344" y="528" type="curve" smooth="yes"/>
      <point x="198" y="528"/>
      <point x="81" y="431"/>
      <point x="81" y="304" type="curve" smooth="yes"/>
      <point x="81" y="177"/>
      <point x="198" y="80"/>
    </contour>
    <contour>
      <point x="344" y="137" type="curve" smooth="yes"/>
      <point x="232" y="137"/>
      <point x="151" y="205"/>
      <point x="151" y="304" type="curve" smooth="yes"/>
      <point x="151" y="403"/>
      <point x="232" y="471"/>
      <point x="344" y="471" type="curve" smooth="yes"/>
      <point x="455" y="471"/>
      <point x="537" y="403"/>
      <point x="537" y="304" type="curve" smooth="yes"/>
      <point x="537" y="205"/>
      <point x="455" y="137"/>
    </contour>
  </outline>
</glyph>
<glyph name="zero.slashlin" format="2">
  <advance width="650"/>
  <outline>
    <contour>
      <point x="325" y="689" type="curve" smooth="yes"/>
      <point x="177" y="689"/>
      <point x="92" y="567"/>
      <point x="92" y="355" type="curve" smooth="yes"/>
      <point x="92" y="141"/>
      <point x="177" y="20"/>
      <point x="325" y="20" type="curve" smooth="yes"/>
      <point x="473" y="20"/>
      <point x="559" y="140"/>
      <point x="559" y="355" type="curve" smooth="yes"/>
      <point x="559" y="567"/>
      <point x="473" y="689"/>
    </contour>
    <contour>
      <point x="112" y="159" type="line"/>
      <point x="558" y="518" type="line"/>
      <point x="544" y="550" type="line"/>
      <point x="95" y="188" type="line"/>
    </contour>
    <contour>
      <point x="325" y="-11" type="curve" smooth="yes"/>
      <point x="162" y="-11"/>
      <point x="48" y="129"/>
      <point x="48" y="355" type="curve" smooth="yes"/>
      <point x="48" y="582"/>
      <point x="162" y="720"/>
      <point x="325" y="720" type="curve" smooth="yes"/>
      <point x="488" y="720"/>
      <point x="603" y="582"/>
      <point x="603" y="355" type="curve" smooth="yes"/>
      <point x="603" y="129"/>
      <point x="488" y="-11"/>
    </contour>
  </outline>
</glyph>
<glyph name="zero.slashold" format="2">
  <advance width="664"/>
  <outline>
    <contour>
      <point x="132" y="99" type="line"/>
      <point x="552" y="420" type="line"/>
      <point x="538" y="448" type="line"/>
      <point x="115" y="124" type="line"/>
    </contour>
    <contour>
      <point x="332" y="-11" type="curve" smooth="yes"/>
      <point x="495" y="-11"/>
      <point x="610" y="105"/>
      <point x="610" y="274" type="curve" smooth="yes"/>
      <point x="610" y="442"/>
      <point x="495" y="558"/>
      <point x="332" y="558" type="curve" smooth="yes"/>
      <point x="169" y="558"/>
      <point x="54" y="442"/>
      <point x="54" y="274" type="curve" smooth="yes"/>
      <point x="54" y="105"/>
      <point x="169" y="-11"/>
    </contour>
    <contour>
      <point x="332.0" y="19.0" type="curve" smooth="yes"/>
      <point x="194" y="19.0"/>
      <point x="97.0" y="118.0"/>
      <point x="97" y="274" type="curve" smooth="yes"/>
      <point x="97.0" y="428.0"/>
      <point x="194" y="528.0"/>
      <point x="332.0" y="528.0" type="curve" smooth="yes"/>
      <point x="470" y="528.0"/>
      <point x="567.0" y="428.0"/>
      <point x="567" y="274" type="curve" smooth="yes"/>
      <point x="567.0" y="117.0"/>
      <point x="470" y="19.0"/>
    </contour>
  </outline>
</glyph>
